<?xml version="1.0" standalone="no"?><!DOCTYPE svg PUBLIC "-//W3C//DTD SVG 1.1//EN" "http://www.w3.org/Graphics/SVG/1.1/DTD/svg11.dtd"><svg t="1752464124907" class="icon" viewBox="0 0 1024 1024" version="1.1" xmlns="http://www.w3.org/2000/svg" p-id="14540" xmlns:xlink="http://www.w3.org/1999/xlink" width="200" height="200"><path d="M0.618667 512.213333c0 282.538667 229.056 511.530667 511.616 511.530667 282.538667 0.106667 511.616-228.992 511.616-511.509333S794.773333 0.725333 512.213333 0.725333C229.674667 0.725333 0.618667 229.717333 0.618667 512.213333z" fill="#ffffff" p-id="14541" data-spm-anchor-id="a313x.search_index.0.i14.4b053a81CIO9M7" class="selected"></path><path d="M594.026667 967.808c-8 16.469333-17.365333 33.856-33.813334 41.856-12.117333 6.058667-26.154667 5.610667-39.872 5.610667l-53.930666-1.28c-3.2 0-6.4 0-9.258667-1.578667-3.648-2.069333-6.058667-5.610667-8.448-9.728-14.506667-24.938667-29.013333-50.346667-36.224-78.570667-3.989333-15.338667-5.589333-30.997333-6.848-46.784-4.8-48.725333-9.706667-97.109333-14.506667-145.834666 16.106667-2.069333 32.213333-4.48 48.32-6.4a284.949333 284.949333 0 0 1 32.682667-3.2c11.306667-0.469333 22.506667 0 33.813333 0.426666 4.458667 0 9.258667 0.469333 13.717334 0.469334 20.565333 0.810667 41.130667 1.6 61.568 2.858666 16.128 0.810667 34.282667 2.410667 44.693333 14.528 8.448 10.069333 9.706667 24.597333 10.026667 37.525334 0.810667 22.976 1.621333 46.656-6.037334 68.522666-4.458667 12.458667-11.306667 23.786667-13.717333 36.586667-1.258667 7.68-0.789333 15.68-1.258667 23.786667-1.258667 21.397333-11.306667 41.536-20.906666 61.205333z" fill="#AEB8D1" p-id="14542"></path><path d="M377.130667 822.72v0.789333l0.789333-0.789333z" fill="#A5B0C7" p-id="14543"></path><path d="M398.208 515.882667h228.394667v218.688H398.208z" fill="#FCCCA7" p-id="14544"></path><path d="M398.208 534.4l228.394667-18.517333-10.176 226.816-218.24-155.84z" fill="#EFAD7D" p-id="14545"></path><path d="M359.594667 480.085333c10.048 30.656 40.32 53.184 72.533333 54.336 2.410667-2.069333 0.810667-5.610667-0.789333-8-27.754667-41.536-58.389333-81.792-77.354667-127.658666 2.410667 26.88-2.858667 55.125333 5.610667 81.322666z m316.821333 20.053334c3.2 17.642667 4.672 19.584-7.573333 27.434666-2.965333 1.877333-10.24 2.496-13.909334 3.306667-5.610667 1.258667-11.648-1.6-16.106666-5.269333-8.917333-7.210667-14.506667-18.069333-17.365334-29.397334-2.858667-11.306667-3.2-22.997333-4.010666-34.645333-0.448-7.210667-0.448-14.528-0.789334-22.186667-0.469333-6.4-0.469333-13.290667 2.389334-18.986666 4.8-9.728 16.106667-13.738667 26.624-16.938667 6.549333-2.133333 13.269333-3.626667 20.117333-4.48 5.589333-0.426667 11.648 0.469333 15.765333 4.010667 5.589333 5.269333 5.248 14.08 4.8 21.76-0.469333 10.496-6.058667 11.242667-4.8 21.76 0 3.093333 0.469333 9.066667-3.221333 15.061333-1.92 3.456-4.330667 5.568-4.672 8.682667-0.341333 3.114667-0.725333 11.114667 0 13.525333l2.773333 16.341333z" fill="#312C29" p-id="14546"></path><path d="M636.416 384c-4.117333 22.656-2.282667 44.629333 4.8 57.664 7.082667 13.013333 18.517333 15.082667 29.717333 5.376 11.306667-9.6 20.778667-29.525333 24.896-52.16 4.117333-22.656 2.282667-44.608-4.8-57.642667-7.082667-13.056-18.496-15.104-29.696-5.397333-11.306667 9.621333-20.8 29.525333-24.917333 52.16z m-295.210667 8.021333c2.048 22.976 9.6 43.690667 19.861334 54.314667 10.282667 10.645333 21.824 9.6 30.058666-2.624 8.32-12.224 12.224-33.962667 10.154667-56.96-2.048-22.997333-9.6-43.690667-19.861333-54.336-10.304-10.624-21.824-9.6-30.058667 2.645333-8.32 12.352-12.224 34.090667-10.154667 56.96z" fill="#FCCCA7" p-id="14547"></path><path d="M367.573333 390.976c0 82.474667 27.541333 158.656 72.32 199.936 44.8 41.173333 99.861333 41.173333 144.64 0 44.8-41.173333 72.341333-117.461333 72.341334-199.914667 0-127.424-64.789333-230.826667-144.64-230.826666-79.872 0-144.64 103.402667-144.64 230.826666z" fill="#FCCCA7" p-id="14548" data-spm-anchor-id="a313x.search_index.0.i16.4b053a81CIO9M7" class=""></path><path d="M442.496 188.736c20.693333-18.197333 44.458667-28.586667 69.738667-28.586667 79.850667 0 144.64 103.424 144.64 230.826667 0 82.474667-27.52 158.762667-72.32 199.936-21.504 19.776-45.397333 30.08-69.354667 30.848V188.736h-72.704z" fill="#FBC69A" p-id="14549" data-spm-anchor-id="a313x.search_index.0.i15.4b053a81CIO9M7" class=""></path><path d="M431.232 190.016c11.648 12.928 16.896 30.208 18.496 47.573333 1.6 17.28 0 34.666667 0 51.946667 0 8.469333 0.469333 16.917333-1.258667 25.386667-2.858667 16.128-12.096 30.186667-21.354666 43.456-6.058667 9.28-12.906667 18.986667-22.976 23.808-15.765333 7.68-36.672 0.448-46.272-14.528-8.448-13.269333-9.706667-29.866667-10.048-45.525334-1.258667-31.786667-2.048-63.594667 3.989333-95.061333 4.586667-20.586667 13.034667-43.456 32.682667-50.773333 16.106667-6.058667 35.413333 0.810667 46.72 13.717333z" fill="#FCCCA7" p-id="14550"></path><path d="M393.066667 145.749333a19.050667 19.050667 0 0 1-6.869334 0.810667c-10.026667 0.448-25.813333 5.610667-32.32 13.610667-13.717333 16.469333-35.306667 33.493333-39.424 54.442666-6.058667 30.186667 0.298667 57.984 6.357334 90.922667 6.058667 32.96 16.96 67.370667 33.066666 93.226667 10.858667 2.410667 15.786667 15.658667 19.306667 15.658666 2.858667-8.448 0-47.914667-3.2-73.301333-0.789333-5.610667-1.6-11.669333 0.469333-16.938667 2.837333-8.810667 12.437333-14.869333 14.506667-24.106666 1.258667-6.08-1.28-12.16-1.28-18.197334-0.426667-10.88 6.08-21.397333 6.08-32.597333 0.448-12.138667-6.4-25.749333 1.6-34.666667 6.037333 22.186667 14.848 45.866667 34.602667 57.984 11.669333 7.210667 26.176 9.28 39.893333 10.069334 31.402667 1.6 64.085333-2.048 93.44 8.469333-6.4-14.08-23.765333-18.538667-39.061333-21.397333 10.496 3.2 20.906667 6.869333 31.872 8.810666 14.848 2.858667 30.613333 2.858667 45.461333 6.058667 14.869333 2.858667 30.165333 8.810667 39.893333 20.928a48.362667 48.362667 0 0 0-28.586666-25.728c13.269333-0.810667 25.813333 8.810667 31.424 20.928 5.610667 12.138667 5.610667 26.197333 2.858666 39.125333-2.048 9.728-4.8 19.776-2.389333 29.397334 2.858667 10.517333 12.096 19.328 10.517333 30.186666 6.4 0.469333 12.096-4.458667 14.848-10.069333 3.2-5.589333 3.989333-12.117333 6.058667-18.176 2.837333-8.810667 6.826667-16.938667 10.496-25.386667 12.458667-33.066667 33.706667-50.56 33.706667-85.845333 0-29.333333-3.669333-64.512-21.034667-85.909333-4.437333-5.589333-17.92-30.016-23.168-35.157334-20.117333-18.197333-32-28.8-55.765333-41.706666-23.765333-12.458667-70.144-28.8-97.109334-25.173334-10.496 1.621333-43.413333 6.826667-53.482666 10.368a119.722667 119.722667 0 0 0-67.178667 56.512c-1.6 2.858667-2.858667 5.589333-5.589333 6.848z" fill="#18181A" p-id="14551"></path><path d="M460.693333 760.768l33.493334 37.525333h34.602666l30.165334-37.525333-22.506667-35.797333H492.586667z" fill="#1F1E24" p-id="14552"></path><path d="M399.466667 605.674667s-19.776 34.197333 112.768 119.978666c0 0-55.637333 49.194667-72.554667 87.850667-16.917333 39.125333-14.058667 29.397333-14.058667 29.397333l-49.130666-160.704c0.341333 0-2.048-70.464 22.976-76.522666z m225.536 0s19.754667 34.197333-112.768 119.978666c0 0 55.637333 49.194667 72.533333 87.850667 16.917333 39.125333 14.08 29.397333 14.08 29.397333l49.109333-160.704c-0.341333 0 2.069333-70.464-22.954666-76.522666z" fill="#CBD1E4" p-id="14553"></path><path d="M391.338667 1009.322667c-32.661333-67.712-55.978667-122.496-55.978667-122.496l41.472-63.594667 0.469333-0.810667h-0.469333l-50.368 6.058667s-12.117333-19.328-12.117333-82.56c0-29.866667 16.896-61.653333 34.624-86.613333-51.2 16.938667-220.736 75.392-238.442667 104.32-4.010667 6.4-9.728 21.738667-16.917333 43.136 70.613333 99.84 175.722667 173.162667 297.749333 202.56z m306.56-181.290667l-50.730667-6.058667 41.92 64.384s-22.954667 55.146667-55.978667 122.858667c122.026667-29.397333 227.242667-103.168 297.28-202.581333-6.848-21.376-12.906667-36.586667-16.917333-43.114667-17.706667-29.056-187.242667-87.381333-238.442667-104.32 17.706667 24.96 34.624 56.405333 34.624 86.613333 0.341333 62.890667-11.754667 82.218667-11.754666 82.218667z" fill="#1D334B" p-id="14554"></path><path d="M512.213333 1023.850667c9.728 0 19.328-0.469333 29.034667-0.810667 6.848-21.717333 12.906667-42.666667 18.965333-62.442667l-31.082666-162.304h-34.602667l-27.434667 169.962667c5.269333 17.28 10.858667 35.456 16.576 54.784 9.258667 0.341333 18.858667 0.810667 28.565334 0.810667z" fill="#1F1E24" p-id="14555"></path><path d="M326.570667 828.032l50.389333-6.058667h0.448l-0.448 0.789334-41.472 64.064s22.954667 55.125333 55.978667 122.837333c29.824 7.210667 60.437333 11.669333 91.861333 13.717333-6.058667-18.986667-11.306667-37.504-16.576-54.784-30.613333-101.909333-49.130667-175.232-60.778667-227.626666-24.554667-111.509333-16.576-128.085333-16.576-128.085334s-20.544 19.328-40.32 46.784c-17.706667 24.938667-34.624 56.384-34.624 86.570667 0 62.464 12.117333 81.792 12.117334 81.792z m306.538666 181.290667a3031.082667 3031.082667 0 0 0 55.978667-122.837334l-41.92-64.405333 50.730667 6.058667s12.096-19.328 12.096-82.56c0-29.866667-16.896-61.653333-34.602667-86.613334a362.624 362.624 0 0 0-40.32-46.656s7.637333 15.338667-13.269333 114.389334c-10.88 51.584-29.824 126.506667-61.589334 233.557333-5.589333 19.776-12.117333 40.256-18.965333 62.442667 31.424-1.258667 62.037333-6.186667 91.861333-13.376z" fill="#4B7499" p-id="14556"></path></svg>