<?xml version="1.0" standalone="no"?><!DOCTYPE svg PUBLIC "-//W3C//DTD SVG 1.1//EN" "http://www.w3.org/Graphics/SVG/1.1/DTD/svg11.dtd"><svg t="1752130913678" class="icon" viewBox="0 0 1024 1024" version="1.1" xmlns="http://www.w3.org/2000/svg" p-id="2152" xmlns:xlink="http://www.w3.org/1999/xlink" width="200" height="200"><path d="M34.453 511.68a477.653 477.653 0 1 0 955.307 0 477.653 477.653 0 1 0-955.307 0z" fill="#8A8A8A" p-id="2153"></path><path d="M472.32 987.307h80.533c78.934-6.08 149.654-31.68 212.267-70.827-9.28-20.373-19.2-40.64-27.413-53.547-22.4-35.093-101.974-70.186-101.974-70.186l-124.373-22.4h-0.427L386.667 792.64s-79.68 34.987-101.974 70.187c-8 12.48-18.453 32.96-27.52 52.8 63.147 40.32 139.627 66.56 215.147 71.68z" fill="#FFFFFF" p-id="2154"></path><path d="M576.32 799.147l-130.667-0.64V646.72H576.32v152.427z m0 0" fill="#FFDDB8" p-id="2155"></path><path d="M512.96 989.44c16 0 31.787-0.96 47.467-2.453L623.68 784.64l-110.72-14.187-1.387 7.574-1.28-7.787-111.146 14.4 63.04 202.027c16.746 1.813 33.6 2.773 50.773 2.773z" fill="#CDCDCD" p-id="2156"></path><path d="M508.373 295.787c-0.533 0-1.066 0.106-1.6 0.106s-1.066-0.106-1.6-0.106c-98.346 0-184.64 95.786-184.64 214.08 0 118.293 117.654 214.08 184.64 214.08 0.534 0 1.067 0 1.6-0.107 0.534 0.107 1.067 0.107 1.6 0.107 66.987 0 184.64-95.787 184.64-214.08 0-118.187-86.293-214.08-184.64-214.08z" fill="#FFDDB8" p-id="2157"></path><path d="M309.547 450.987c-3.094-54.187-6.187-130.667 15.466-178.56 21.654-47.787 136.32-98.88 185.814-98.88 49.493 0 145.493 47.786 167.253 76.48 12.8 16.853 32.32 109.333 30.933 188.053-0.96 55.36-9.6 76.693-18.56 92.373-4.48 7.894 6.187-101.973-92.906-188.053-15.467-9.6-29.867 5.973-49.6 9.6-32.854 6.08-61.974 6.293-86.72 6.293-28.907 0-82.134 37.12-96 73.28-24.64 64-18.56 111.574-18.56 111.574s-34.027-37.974-37.12-92.16z m0 0" fill="#634335" p-id="2158"></path><path d="M308.373 512.32c7.894 25.173 24.534 42.453 37.12 38.507 12.587-3.947 16.427-27.52 8.64-52.8-7.893-25.174-24.533-42.454-37.12-38.507-12.586 4.053-16.533 27.627-8.64 52.8z m365.654 32.107c12.586 3.946 29.226-13.334 37.12-38.507 7.893-25.173 4.053-48.853-8.64-52.8-12.587-3.947-29.227 13.227-37.12 38.507-7.894 25.28-4.054 48.853 8.64 52.8z m0 0" fill="#FFDDB8" p-id="2159"></path><path d="M510.933 770.453h0.107z" fill="#FAB729" p-id="2160"></path><path d="M487.893 988.693c8.32 0.427 16.64 0.64 25.067 0.64 7.36 0 14.72-0.213 21.973-0.533l-9.706-97.28 54.186-117.973-70.186-3.2-66.88 3.2L495.36 891.52l-7.467 97.173z" fill="#8A8A8A" p-id="2161"></path><path d="M436.907 725.653l73.28 44.587-121.174 95.68v-95.68l47.894-44.587z m146.666 0l-73.28 44.587 121.067 95.68v-95.68l-47.787-44.587z m0 0" fill="#FFFFFF" p-id="2162"></path></svg>