<?xml version="1.0" standalone="no"?><!DOCTYPE svg PUBLIC "-//W3C//DTD SVG 1.1//EN" "http://www.w3.org/Graphics/SVG/1.1/DTD/svg11.dtd"><svg t="1752131179197" class="icon" viewBox="0 0 1024 1024" version="1.1" xmlns="http://www.w3.org/2000/svg" p-id="7903" xmlns:xlink="http://www.w3.org/1999/xlink" width="200" height="200"><path d="M513.2 10.4c-154.6 0-280 125.4-280 280s125.4 280 280 280 280-125.4 280-280v-280h-280zM375.4 350.3h-2.3c-10.4 0.6-19.4-7.3-20-17.7v-82.3c0-11 9-20 20-20s20 9 20 20v80c0.7 10.5-7.2 19.4-17.7 20z m157.8 40.1h-40v-140c0-11 9-20 20-20s20 9 20 20v140z" p-id="7904" data-spm-anchor-id="a313x.search_index.0.i17.7c9e3a81LceWjC" class="selected" fill="#1296db"></path><path d="M515.4 350.3h-2.3c-10.4 0.6-19.4-7.3-20-17.7v-62.3 120h40v-57.8c-0.5 9.5-8 17.3-17.7 17.8zM132.5 884.9c0-154 126.7-234.6 280.7-234.6h200c154 0 278.3 82 278.3 236 0 0-137.2 127.7-376.1 127.3S132.5 884.9 132.5 884.9z" p-id="7905" data-spm-anchor-id="a313x.search_index.0.i16.7c9e3a81LceWjC" class="" fill="#13227a"></path></svg>