<?xml version="1.0" standalone="no"?><!DOCTYPE svg PUBLIC "-//W3C//DTD SVG 1.1//EN" "http://www.w3.org/Graphics/SVG/1.1/DTD/svg11.dtd"><svg t="1752130781190" class="icon" viewBox="0 0 1024 1024" version="1.1" xmlns="http://www.w3.org/2000/svg" p-id="10334" xmlns:xlink="http://www.w3.org/1999/xlink" width="200" height="200"><path d="M0 511.999767c0 282.763508 229.236259 511.999767 511.999767 511.999768s511.999767-229.236259 511.999768-511.999768S794.763275 0 511.999767 0 0 229.236259 0 511.999767" fill="#37E2BE" p-id="10335" data-spm-anchor-id="a313x.search_index.0.i3.4b053a818marey" class="selected"></path><path d="M511.999767 1023.999535c147.781751 0 280.948236-62.650153 374.411466-162.769381a11.869086 11.869086 0 0 0-2.653089-6.469815c-14.103266-17.128719-75.124329-61.579608-135.540302-91.042868-76.567238-37.375983-147.642115-45.14907-147.642115-45.14907l-106.30977 305.105316c5.91127 0.232727 11.775995 0.325818 17.687265 0.325818" fill="#FFFFFF" p-id="10336"></path><path d="M511.999767 1023.999535l8.378178-0.046546-103.65668-312.366403s-71.074877 7.773087-147.735205 45.14907c-60.369427 29.416714-121.39049 73.867603-135.447212 91.042868a11.869086 11.869086 0 0 0-2.699635 6.097452A510.929222 510.929222 0 0 0 511.999767 1023.999535" fill="#FFFFFF" p-id="10337"></path><path d="M428.962714 770.187286h155.554838v-107.566496H428.962714z" fill="#F6CAA9" p-id="10338"></path><path d="M711.400404 441.017981c0 126.603579-90.949777 229.282805-203.124271 229.282805-112.127949 0-203.077726-102.632681-203.077726-229.282805 0-126.603579 90.949777-229.282805 203.077726-229.282805 112.174494 0 203.124271 102.632681 203.124271 229.282805" fill="#F6CAA9" p-id="10339"></path><path d="M430.452168 692.130594s-17.454538-3.909816-13.311994 22.248718c4.561452 28.718532 90.577413 270.754786 90.577413 270.754786l90.903232-259.258064s8.378178-34.583257-12.753449-31.743986l-78.149783 67.165061-77.265419-69.119969z" fill="#18509F" p-id="10340"></path><path d="M539.135755 895.627229s-17.22181-77.730874-17.826901-80.849418c-0.605091-3.071999 5.585452-11.729449 5.585452-16.663265 0-4.933816-4.328725-8.05236-9.960723-14.196357-5.585452-6.190543-9.960723-18.292355-9.960723-18.292355v0.558545c-0.558545 1.396363-4.654543 12.241449-9.821086 18.059628-5.631997 6.190543-10.007268 9.262541-10.007268 14.196357 0 4.887271 6.237088 13.591267 5.631997 16.663265-0.698182 3.071999-16.197811 78.38251-16.197811 78.38251l31.743986 92.253049-0.605091-0.60509 31.418168-89.506869z" fill="#1A305D" p-id="10341"></path><path d="M747.659297 454.050703c0 18.943991-13.96363 34.257439-31.185441 34.257439-17.22181 0-31.18544-15.359993-31.18544-34.257439 0-18.943991 13.96363-34.303984 31.18544-34.303985 17.22181 0 31.18544 15.359993 31.185441 34.303985m-416.767811 0.418909c0 18.943991-13.96363 34.257439-31.18544 34.257439-17.22181 0-31.18544-15.359993-31.185441-34.257439 0-18.943991 13.96363-34.257439 31.185441-34.257439 17.22181 0 31.18544 15.313448 31.18544 34.257439" fill="#F6CAA9" p-id="10342"></path><path d="M621.753899 286.487143s56.692338 25.832716 18.152719 44.962888c-35.188348 10.100359-107.799224 3.351271-141.77739-1.163636C464.057971 325.818034 369.291469 294.353321 369.291469 294.353321l2.885816 23.039989s71.679967 25.78617 131.583941 34.257439c59.578155 8.378178 125.951943 16.849447 154.298111-4.514907 24.948352-15.685811 18.152719-42.682162 18.152719-42.682162s31.18544-3.397817 34.583257-10.100359l-10.19345-19.130173s-11.962176 6.749088-78.847964 11.263995" fill="#ECB485" p-id="10343"></path><path d="M634.972802 195.956275s93.789048-41.89089-22.667626-61.439973c-116.50322-19.409446-237.474801 41.983981-266.239879 104.959953 0 0-51.432704-9.029814-61.998517 98.909046 0 65.908334 10.565813 82.385417 10.565813 82.385417s16.290902-4.514907 15.127266 38.213801c0 0 12.474176 14.615266 18.152719-1.117091 0 0 3.397817-29.230532-1.163636-38.213801 0 0 49.94325-26.996351 45.428343-122.50758 0 0 53.341067 25.879261 134.981757 34.862529 81.687236 8.983269 129.303214 1.11709 129.303214 1.117091s0 51.665431 45.428343 84.247234l-2.280726 37.143256s1.11709 7.819633 9.076359 7.819633c7.912724 0 9.07636-12.33454 9.07636-12.33454s-1.163636-26.996351 17.035629-30.347623c0 0 21.50399-80.895963-5.678543-143.825389 0 0 37.422528-14.661812 21.550535-49.524341-15.871993-34.815984-95.697411-30.301077-95.697411-30.301077" fill="#5C5C5C" p-id="10344"></path><path d="M429.428168 652.753158s29.463259 15.220357 72.238513 15.220357c50.269068 2.047999 83.083599-14.801448 83.083599-14.801448v15.220356s-55.249429 29.649441-80.151237 29.649442c-24.948352 0-75.636329-35.002166-75.636329-35.002166l0.465454-10.239996z" fill="#ECB485" p-id="10345"></path><path d="M642.23389 908.194496h-36.770892v-48.872705c0-4.79418 3.863271-8.657451 8.703996-8.65745 4.79418 0 8.703996 3.863271 8.703996 8.610905v31.650894h19.3629c4.79418 0 8.750541 3.909816 8.750541 8.610906a8.703996 8.703996 0 0 1-8.750541 8.65745z m80.802872 0h-36.817438a8.657451 8.657451 0 0 1-8.703996-8.65745c0-4.701089 3.863271-8.56436 8.703996-8.56436h19.362901v-31.650895c0-4.79418 3.909816-8.657451 8.703996-8.65745 4.840725 0 8.750541 3.863271 8.750541 8.610905v48.872705z" fill="#3B82BC" p-id="10346"></path><path d="M715.636038 294.492957l-2.606544-8.657451-3.909816-10.007268s-20.479991 6.143997-87.365779 10.658905c0 0 56.738883 25.832716 18.152719 44.916343-1.163636 0.372363-2.373817 0.651636-3.630544 0.977454 0.930909 6.516361 2.327272 15.453084 4.189089 23.226171 6.795633-2.047999 12.799994-4.840725 17.547629-8.424723 24.994898-15.778902 18.199264-42.728708 18.199264-42.728708s36.026165-3.211635 39.423982-9.960723" fill="#343434" p-id="10347"></path><path d="M726.853488 854.248339v-12.567267c0-29.649441-21.50399-54.411612-49.989796-59.903973v-46.079979a536.668847 536.668847 0 0 0-27.229078-7.586906v54.22543a61.346881 61.346881 0 0 0-47.429797 59.345428v12.567267c0 6.842179 5.631997 12.381085 12.567267 12.381085 6.981815 0 12.567267-5.585452 12.567267-12.381085v-12.567267c0-20.014536 16.477083-36.305438 36.770893-36.305438h0.884363c20.247264 0 36.770892 16.290902 36.770892 36.305438v12.567267c0 6.842179 5.585452 12.381085 12.567267 12.381085 6.888724 0 12.520722-5.585452 12.520722-12.381085m-375.202739-43.659617c16.10472 0 29.230532 12.93963 29.230532 28.858169 0 15.918538-13.125812 28.858169-29.230532 28.858169a29.04435 29.04435 0 0 1-29.230532-28.858169c0-15.918538 13.079267-28.858169 29.230532-28.858169m0 84.619598c31.18544 0 56.506156-24.994898 56.506156-55.761429 0-26.065443-18.152719-47.941796-42.682162-54.039248a11.543267 11.543267 0 0 0 0.139636-1.722181v-62.045063c-8.657451 2.187635-17.268356 4.654543-25.78617 7.261088l-0.093091 5.259634v49.524341c0 0.465454 0 0.791272 0.093091 1.256727-25.506897 5.352725-44.730161 27.741078-44.730161 54.504702 0 30.766531 25.367261 55.761429 56.552701 55.761429" fill="#1A305D" p-id="10348"></path></svg>