<?xml version="1.0" standalone="no"?><!DOCTYPE svg PUBLIC "-//W3C//DTD SVG 1.1//EN" "http://www.w3.org/Graphics/SVG/1.1/DTD/svg11.dtd"><svg t="1752060177440" class="icon" viewBox="0 0 1024 1024" version="1.1" xmlns="http://www.w3.org/2000/svg" p-id="8547" xmlns:xlink="http://www.w3.org/1999/xlink" width="200" height="200"><path d="M512 512m-512 0a512 512 0 1 0 1024 0 512 512 0 1 0-1024 0Z" fill="#5E81F4" p-id="8548"></path><path d="M256 256.512h511.488V768H256z" fill-opacity="0" p-id="8549"></path><path d="M312.888889 440.888889a184.888889 184.888889 0 1 0 369.777778 0 184.888889 184.888889 0 0 0-369.777778 0z" fill="#6A99FF" p-id="8550"></path><path d="M583.196444 652.743111a119.352889 119.352889 0 0 1 51.143112 98.218667 16.867556 16.867556 0 0 1-17.038223 17.038222 16.867556 16.867556 0 0 1-17.038222-17.038222c0-47.047111-38.200889-85.248-85.248-85.248s-85.248 38.200889-85.248 85.248a16.924444 16.924444 0 0 1-17.066667 17.038222 16.867556 16.867556 0 0 1-17.038222-17.038222c0-38.200889 18.403556-74.325333 49.095111-96.170667-106.382222-36.835556-162.986667-153.457778-126.179555-260.522667 36.835556-106.382222 152.775111-162.986667 259.84-126.179555s163.669333 153.457778 126.862222 259.84c-20.48 57.969778-64.796444 103.68-122.083556 124.814222z m-71.623111-362.154667c-94.122667 0-170.496 76.373333-170.496 170.496s76.373333 170.496 170.496 170.496 170.496-76.373333 170.496-170.496-76.373333-170.496-170.496-170.496z" fill="#FFFFFF" p-id="8551"></path><path d="M575.687111 543.630222c-37.518222 23.864889-85.248 23.182222-122.766222-1.365333-8.192-5.461333-10.24-16.355556-5.461333-24.547556s14.336-10.922667 22.499555-6.144l0.682667 0.682667c26.595556 17.038222 60.700444 17.720889 87.296 0.682667a15.957333 15.957333 0 0 1 22.499555 5.461333l0.682667 0.682667c4.807111 8.846222 2.076444 19.768889-5.432889 24.547555z" fill="#FFE70B" p-id="8552"></path></svg>