<?xml version="1.0" standalone="no"?><!DOCTYPE svg PUBLIC "-//W3C//DTD SVG 1.1//EN" "http://www.w3.org/Graphics/SVG/1.1/DTD/svg11.dtd"><svg t="1752075803858" class="icon" viewBox="0 0 1033 1024" version="1.1" xmlns="http://www.w3.org/2000/svg" p-id="31938" xmlns:xlink="http://www.w3.org/1999/xlink" width="201.7578125" height="200"><path d="M351.186112 537.734356m41.340331 0l248.145337 0q41.340331 0 41.340331 41.340331l0 0q0 41.340331-41.340331 41.340331l-248.145337 0q-41.340331 0-41.340331-41.340331l0 0q0-41.340331 41.340331-41.340331Z" fill="#37E2BE" p-id="31939"></path><path d="M475.310456 744.539362m0-41.340331l0-248.145337q0-41.340331 41.340331-41.340331l0 0q41.340331 0 41.340331 41.340331l0 248.145337q0 41.340331-41.340331 41.340331l0 0q-41.340331 0-41.340331-41.340331Z" fill="#37E2BE" p-id="31940"></path><path d="M475.620509 0m36.689543 0l11.988696 0q36.689544 0 36.689544 36.689544l0 151.822366q0 36.689544-36.689544 36.689543l-11.988696 0q-36.689544 0-36.689543-36.689543l0-151.822366q0-36.689544 36.689543-36.689544Z" fill="#37E2BE" p-id="31941"></path><path d="M828.858642 812.650152m25.943425-25.943425l8.477288-8.477288q25.943425-25.943425 51.886851 0l107.354624 107.354624q25.943425 25.943425 0 51.886851l-8.477288 8.477288q-25.943425 25.943425-51.886851 0l-107.354624-107.354625q-25.943425-25.943425 0-51.88685Z" fill="#37E2BE" p-id="31942"></path><path d="M45.158864 973.114194m-25.943425-25.943425l-8.477289-8.477289q-25.943425-25.943425 0-51.88685l107.354625-107.354624q25.943425-25.943425 51.88685 0l8.477288 8.477288q25.943425 25.943425 0 51.88685l-107.354624 107.354625q-25.943425 25.943425-51.88685 0Z" fill="#37E2BE" p-id="31943"></path><path d="M241.634235 775.131207l262.097699 150.272103a35.139281 35.139281 0 0 0 28.524828 0L794.25111 775.131207a35.035931 35.035931 0 0 0 20.670166-32.038756V456.293904a34.829229 34.829229 0 0 0-20.670166-31.935406L532.256762 274.396447a35.139281 35.139281 0 0 0-28.524828 0L241.634235 424.358498a35.035931 35.035931 0 0 0-20.670166 31.935406v287.108599a35.139281 35.139281 0 0 0 20.670166 31.728704z m276.360113 248.041986a49.194994 49.194994 0 0 1-19.636657-4.134033L161.640694 835.281389a48.368187 48.368187 0 0 1-28.73153-44.234154v-382.398063a48.264836 48.264836 0 0 1 28.73153-44.130803l336.716997-183.241017a48.161486 48.161486 0 0 1 39.273314 0L874.348002 364.518369a48.368187 48.368187 0 0 1 28.73153 44.234154v382.398062a48.574889 48.574889 0 0 1-28.73153 44.234155L537.424304 1018.522406a49.194994 49.194994 0 0 1-19.636658 4.134033z" fill="#37E2BE" p-id="31944"></path></svg>