<?xml version="1.0" standalone="no"?><!DOCTYPE svg PUBLIC "-//W3C//DTD SVG 1.1//EN" "http://www.w3.org/Graphics/SVG/1.1/DTD/svg11.dtd"><svg t="1752467835837" class="icon" viewBox="0 0 1024 1024" version="1.1" xmlns="http://www.w3.org/2000/svg" p-id="19876" xmlns:xlink="http://www.w3.org/1999/xlink" width="200" height="200"><path d="M412.574 599.094H157.452V424.952h256.263l-144.48-144.48c-17.85-17.85-46.79-17.85-64.64 0L23.672 463.009c-28.882 28.882-0.637 36.108-0.875 47.482-0.252 12.016-26.012 24.131-0.738 49.406l182.537 182.537c17.849 17.85 46.789 17.85 64.639 0l143.339-143.34zM599.259 612.776v253.983H425.116V611.636l-144.479 144.48c-17.85 17.849-17.85 46.789 0 64.639l182.537 182.536c25.274 25.274 37.39-0.486 49.405-0.738 11.375-0.238 18.601 28.007 47.483-0.875l182.536-180.924c17.85-17.85 17.85-46.79 0-64.639L599.259 612.776zM1001.578 513.555c0.251-12.016 26.012-24.131 0.737-49.406L819.779 281.613c-17.85-17.85-46.79-17.85-64.639 0L611.801 424.952h255.122v174.143H610.661L755.14 743.573c17.849 17.85 46.789 17.85 64.639 0l180.924-182.536c28.881-28.881 0.637-36.107 0.875-47.482zM425.116 411.27V157.287h174.143V412.41l144.479-144.479c17.849-17.85 17.849-46.79 0-64.639L561.202 20.755c-25.275-25.274-37.39 0.486-49.406 0.738-11.375 0.238-18.601-28.007-47.482 0.875L281.777 203.292c-17.85 17.85-17.85 46.79 0 64.639L425.116 411.27z" fill="#ffffff" p-id="19877"></path></svg>